<?xml version="1.0" encoding="UTF-8"?>
<!DOCTYPE svg PUBLIC "-//W3C//DTD SVG 1.1//EN" "http://www.w3.org/Graphics/SVG/1.1/DTD/svg11.dtd">
<svg xmlns="http://www.w3.org/2000/svg" version="1.1" width="950px" height="387px" style="shape-rendering:geometricPrecision; text-rendering:geometricPrecision; image-rendering:optimizeQuality; fill-rule:evenodd; clip-rule:evenodd" xmlns:xlink="http://www.w3.org/1999/xlink">
<g><path style="opacity:0.024" fill="#bfc1c2" d="M 244.5,14.5 C 246.337,14.6395 246.67,15.3061 245.5,16.5C 244.702,16.0431 244.369,15.3764 244.5,14.5 Z"/></g>
<g><path style="opacity:0.024" fill="#bfc1c2" d="M 324.5,14.5 C 326.337,14.6395 326.67,15.3061 325.5,16.5C 324.702,16.0431 324.369,15.3764 324.5,14.5 Z"/></g>
<g><path style="opacity:0.024" fill="#bfc1c2" d="M 404.5,14.5 C 406.337,14.6395 406.67,15.3061 405.5,16.5C 404.702,16.0431 404.369,15.3764 404.5,14.5 Z"/></g>
<g><path style="opacity:0.024" fill="#bfc1c2" d="M 484.5,14.5 C 486.337,14.6395 486.67,15.3061 485.5,16.5C 484.702,16.0431 484.369,15.3764 484.5,14.5 Z"/></g>
<g><path style="opacity:0.024" fill="#bfc1c2" d="M 564.5,14.5 C 566.337,14.6395 566.67,15.3061 565.5,16.5C 564.702,16.0431 564.369,15.3764 564.5,14.5 Z"/></g>
<g><path style="opacity:0.024" fill="#bfc1c2" d="M 644.5,14.5 C 646.337,14.6395 646.67,15.3061 645.5,16.5C 644.702,16.0431 644.369,15.3764 644.5,14.5 Z"/></g>
<g><path style="opacity:0.024" fill="#bfc1c2" d="M 724.5,14.5 C 726.337,14.6395 726.67,15.3061 725.5,16.5C 724.702,16.0431 724.369,15.3764 724.5,14.5 Z"/></g>
<g><path style="opacity:0.024" fill="#bfc1c2" d="M 804.5,14.5 C 806.337,14.6395 806.67,15.3061 805.5,16.5C 804.702,16.0431 804.369,15.3764 804.5,14.5 Z"/></g>
<g><path style="opacity:0.024" fill="#bfc1c2" d="M 34.5,17.5 C 36.337,17.6395 36.6704,18.3061 35.5,19.5C 34.7025,19.0431 34.3691,18.3764 34.5,17.5 Z"/></g>
<g><path style="opacity:0.024" fill="#bfc1c2" d="M 114.5,17.5 C 116.337,17.6395 116.67,18.3061 115.5,19.5C 114.702,19.0431 114.369,18.3764 114.5,17.5 Z"/></g>
<g><path style="opacity:0.024" fill="#bfc1c2" d="M 194.5,17.5 C 196.337,17.6395 196.67,18.3061 195.5,19.5C 194.702,19.0431 194.369,18.3764 194.5,17.5 Z"/></g>
<g><path style="opacity:0.024" fill="#bfc1c2" d="M 274.5,17.5 C 276.337,17.6395 276.67,18.3061 275.5,19.5C 274.702,19.0431 274.369,18.3764 274.5,17.5 Z"/></g>
<g><path style="opacity:0.024" fill="#bfc1c2" d="M 354.5,17.5 C 356.337,17.6395 356.67,18.3061 355.5,19.5C 354.702,19.0431 354.369,18.3764 354.5,17.5 Z"/></g>
<g><path style="opacity:0.024" fill="#bfc1c2" d="M 434.5,17.5 C 436.337,17.6395 436.67,18.3061 435.5,19.5C 434.702,19.0431 434.369,18.3764 434.5,17.5 Z"/></g>
<g><path style="opacity:0.024" fill="#bfc1c2" d="M 514.5,17.5 C 516.337,17.6395 516.67,18.3061 515.5,19.5C 514.702,19.0431 514.369,18.3764 514.5,17.5 Z"/></g>
<g><path style="opacity:0.024" fill="#bfc1c2" d="M 594.5,17.5 C 596.337,17.6395 596.67,18.3061 595.5,19.5C 594.702,19.0431 594.369,18.3764 594.5,17.5 Z"/></g>
<g><path style="opacity:0.024" fill="#bfc1c2" d="M 674.5,17.5 C 676.337,17.6395 676.67,18.3061 675.5,19.5C 674.702,19.0431 674.369,18.3764 674.5,17.5 Z"/></g>
<g><path style="opacity:0.024" fill="#bfc1c2" d="M 754.5,17.5 C 756.337,17.6395 756.67,18.3061 755.5,19.5C 754.702,19.0431 754.369,18.3764 754.5,17.5 Z"/></g>
<g><path style="opacity:0.024" fill="#bfc1c2" d="M 834.5,17.5 C 836.337,17.6395 836.67,18.3061 835.5,19.5C 834.702,19.0431 834.369,18.3764 834.5,17.5 Z"/></g>
<g><path style="opacity:0.024" fill="#bfc1c2" d="M 914.5,17.5 C 916.337,17.6395 916.67,18.3061 915.5,19.5C 914.702,19.0431 914.369,18.3764 914.5,17.5 Z"/></g>
<g><path style="opacity:1" fill="#fc8a1f" d="M 190.5,25.5 C 213.658,23.0937 236.324,25.927 258.5,34C 251.543,35.6418 244.876,38.1418 238.5,41.5C 238.631,40.6236 238.298,39.9569 237.5,39.5C 222.334,33.1255 206.667,28.4588 190.5,25.5 Z"/></g>
<g><path style="opacity:0.471" fill="#f8b5b1" d="M 141.5,37.5 C 140.833,38.1667 140.833,38.1667 141.5,37.5 Z"/></g>
<g><path style="opacity:1" fill="#fc8611" d="M 298.5,78.5 C 297.604,75.9308 295.938,73.9308 293.5,72.5C 278.307,60.7323 261.974,50.7323 244.5,42.5C 253.074,38.976 262.074,37.8094 271.5,39C 289.916,48.2045 306.582,59.8712 321.5,74C 313.791,75.3085 306.124,76.8085 298.5,78.5 Z"/></g>
<g><path style="opacity:1" fill="#ef4234" d="M 190.5,25.5 C 206.667,28.4588 222.334,33.1255 237.5,39.5C 238.298,39.9569 238.631,40.6236 238.5,41.5C 233.032,43.392 229.032,46.392 226.5,50.5C 232.073,46.8648 238.073,44.1981 244.5,42.5C 261.974,50.7323 278.307,60.7323 293.5,72.5C 295.938,73.9308 297.604,75.9308 298.5,78.5C 294.499,79.5003 290.499,80.5003 286.5,81.5C 285.527,81.9867 284.527,82.4867 283.5,83C 285.066,83.765 286.399,83.5983 287.5,82.5C 292.107,81.4456 296.773,80.779 301.5,80.5C 317.44,94.1067 330.44,110.107 340.5,128.5C 340.5,129.167 340.5,129.833 340.5,130.5C 334.833,130.5 329.167,130.5 323.5,130.5C 324.008,113.345 316.341,101.511 300.5,95C 290.547,91.0079 280.214,89.1746 269.5,89.5C 266.539,85.5966 264.039,81.2632 262,76.5C 252.217,66.0942 240.383,62.9275 226.5,67C 219.871,69.8191 213.537,72.8191 207.5,76C 212.111,67.6237 213.611,58.7904 212,49.5C 208.068,43.2818 202.568,39.1151 195.5,37C 177.469,32.3159 159.469,32.4825 141.5,37.5C 142.987,36.1964 144.654,35.0298 146.5,34C 160.745,28.9177 175.411,26.0843 190.5,25.5 Z"/></g>
<g><path style="opacity:1" fill="#fc850a" d="M 95.5,67.5 C 93.3861,68.9071 91.8861,70.9071 91,73.5C 76.7459,115.207 78.7459,156.207 97,196.5C 99.6777,201.866 102.844,206.866 106.5,211.5C 106.833,212.167 107.167,212.833 107.5,213.5C 98.7333,209.617 90.0667,205.451 81.5,201C 67.2363,196.526 52.903,196.359 38.5,200.5C 38.1667,200.167 37.8333,199.833 37.5,199.5C 43.4506,189.821 47.9506,179.487 51,168.5C 53.0547,152.846 55.0547,137.18 57,121.5C 63.197,97.5991 76.0303,78.0991 95.5,63C 96.1667,62.3333 96.8333,62.3333 97.5,63C 96.4178,64.3297 95.7512,65.8297 95.5,67.5 Z"/></g>
<g><path style="opacity:1" fill="#fc860f" d="M 340.5,128.5 C 330.44,110.107 317.44,94.1067 301.5,80.5C 308.297,79.0451 315.297,78.0451 322.5,77.5C 325.406,78.8974 327.906,80.8974 330,83.5C 335.245,90.3239 340.245,97.3239 345,104.5C 344.833,112.831 343.333,120.831 340.5,128.5 Z"/></g>
<g><path style="opacity:1" fill="#fdcdc8" d="M 286.5,81.5 C 286.5,82.1667 286.833,82.5 287.5,82.5C 286.399,83.5983 285.066,83.765 283.5,83C 284.527,82.4867 285.527,81.9867 286.5,81.5 Z"/></g>
<g><path style="opacity:1" fill="#b62f27" d="M 269.5,89.5 C 280.214,89.1746 290.547,91.0079 300.5,95C 316.341,101.511 324.008,113.345 323.5,130.5C 319.628,151.782 312.961,172.115 303.5,191.5C 294.089,211.321 284.423,230.987 274.5,250.5C 272.5,253.5 270.5,256.5 268.5,259.5C 272.109,249.005 276.109,238.671 280.5,228.5C 281.404,227.791 281.737,226.791 281.5,225.5C 282.929,223.322 283.763,220.989 284,218.5C 275.45,229.524 264.283,236.024 250.5,238C 254.838,234.511 258.171,230.344 260.5,225.5C 272.924,222.3 282.758,214.967 290,203.5C 299.269,184.026 305.936,163.693 310,142.5C 310.667,135.167 310.667,127.833 310,120.5C 307.166,108.333 299.999,99.8334 288.5,95C 282.228,92.5242 275.895,90.6909 269.5,89.5 Z"/></g>
<g><path style="opacity:0.024" fill="#bfc1c2" d="M 404.5,94.5 C 406.337,94.6395 406.67,95.3061 405.5,96.5C 404.702,96.0431 404.369,95.3764 404.5,94.5 Z"/></g>
<g><path style="opacity:0.024" fill="#bfc1c2" d="M 484.5,94.5 C 486.337,94.6395 486.67,95.3061 485.5,96.5C 484.702,96.0431 484.369,95.3764 484.5,94.5 Z"/></g>
<g><path style="opacity:0.024" fill="#bfc1c2" d="M 564.5,94.5 C 566.337,94.6395 566.67,95.3061 565.5,96.5C 564.702,96.0431 564.369,95.3764 564.5,94.5 Z"/></g>
<g><path style="opacity:0.024" fill="#bfc1c2" d="M 804.5,94.5 C 806.337,94.6395 806.67,95.3061 805.5,96.5C 804.702,96.0431 804.369,95.3764 804.5,94.5 Z"/></g>
<g><path style="opacity:0.024" fill="#bfc1c2" d="M 34.5,97.5 C 36.337,97.6395 36.6704,98.3061 35.5,99.5C 34.7025,99.0431 34.3691,98.3764 34.5,97.5 Z"/></g>
<g><path style="opacity:0.024" fill="#bfc1c2" d="M 114.5,97.5 C 116.337,97.6395 116.67,98.3061 115.5,99.5C 114.702,99.0431 114.369,98.3764 114.5,97.5 Z"/></g>
<g><path style="opacity:0.024" fill="#bfc1c2" d="M 194.5,97.5 C 196.337,97.6395 196.67,98.3061 195.5,99.5C 194.702,99.0431 194.369,98.3764 194.5,97.5 Z"/></g>
<g><path style="opacity:0.024" fill="#bfc1c2" d="M 274.5,97.5 C 276.337,97.6395 276.67,98.3061 275.5,99.5C 274.702,99.0431 274.369,98.3764 274.5,97.5 Z"/></g>
<g><path style="opacity:0.024" fill="#bfc1c2" d="M 354.5,97.5 C 356.337,97.6395 356.67,98.3061 355.5,99.5C 354.702,99.0431 354.369,98.3764 354.5,97.5 Z"/></g>
<g><path style="opacity:0.024" fill="#bfc1c2" d="M 434.5,97.5 C 436.337,97.6395 436.67,98.3061 435.5,99.5C 434.702,99.0431 434.369,98.3764 434.5,97.5 Z"/></g>
<g><path style="opacity:0.024" fill="#bfc1c2" d="M 514.5,97.5 C 516.337,97.6395 516.67,98.3061 515.5,99.5C 514.702,99.0431 514.369,98.3764 514.5,97.5 Z"/></g>
<g><path style="opacity:0.024" fill="#bfc1c2" d="M 594.5,97.5 C 596.337,97.6395 596.67,98.3061 595.5,99.5C 594.702,99.0431 594.369,98.3764 594.5,97.5 Z"/></g>
<g><path style="opacity:0.024" fill="#bfc1c2" d="M 674.5,97.5 C 676.337,97.6395 676.67,98.3061 675.5,99.5C 674.702,99.0431 674.369,98.3764 674.5,97.5 Z"/></g>
<g><path style="opacity:0.024" fill="#bfc1c2" d="M 754.5,97.5 C 756.337,97.6395 756.67,98.3061 755.5,99.5C 754.702,99.0431 754.369,98.3764 754.5,97.5 Z"/></g>
<g><path style="opacity:0.024" fill="#bfc1c2" d="M 834.5,97.5 C 836.337,97.6395 836.67,98.3061 835.5,99.5C 834.702,99.0431 834.369,98.3764 834.5,97.5 Z"/></g>
<g><path style="opacity:0.024" fill="#bfc1c2" d="M 914.5,97.5 C 916.337,97.6395 916.67,98.3061 915.5,99.5C 914.702,99.0431 914.369,98.3764 914.5,97.5 Z"/></g>
<g><path style="opacity:1" fill="#f37623" d="M 247.5,116.5 C 227.972,129.436 207.306,140.603 185.5,150C 182.669,152.001 180.003,154.167 177.5,156.5C 177.178,150.977 179.178,146.477 183.5,143C 201.96,133.603 220.293,123.936 238.5,114C 246.247,108.924 253.413,103.091 260,96.5C 257.634,104.221 253.467,110.887 247.5,116.5 Z"/></g>
<g><path style="opacity:1" fill="#fc8816" d="M 367.5,208.5 C 366.274,202.147 364.941,195.814 363.5,189.5C 359.357,170.403 353.023,152.07 344.5,134.5C 345.975,127.908 348.142,121.574 351,115.5C 365.346,144.908 370.846,175.908 367.5,208.5 Z"/></g>
<g><path style="opacity:1" fill="#bc3e34" d="M 245.5,133.5 C 243.54,132.552 241.54,132.386 239.5,133C 242.336,129.333 245.336,125.833 248.5,122.5C 255.655,120.133 262.988,119.967 270.5,122C 265.167,124 259.833,126 254.5,128C 251.102,129.357 248.102,131.19 245.5,133.5 Z"/></g>
<g><path style="opacity:1" fill="#383838" d="M 438.5,122.5 C 446.319,122.032 453.986,122.865 461.5,125C 463.874,125.848 465.874,127.181 467.5,129C 466.037,133.437 463.704,137.27 460.5,140.5C 452.869,136.584 445.035,135.917 437,138.5C 436.28,140.112 436.446,141.612 437.5,143C 445.036,145.953 452.369,149.287 459.5,153C 468.986,163.163 468.319,172.83 457.5,182C 444.167,189.333 430.833,189.333 417.5,182C 416.313,180.981 415.313,179.814 414.5,178.5C 417.484,175.015 420.651,171.682 424,168.5C 432.488,174.621 441.155,174.954 450,169.5C 450.896,166.975 450.396,164.808 448.5,163C 442.667,159.945 436.667,157.278 430.5,155C 419.201,146.57 418.534,137.236 428.5,127C 431.815,125.17 435.149,123.67 438.5,122.5 Z"/></g>
<g><path style="opacity:1" fill="#353535" d="M 476.5,122.5 C 492.837,122.333 509.17,122.5 525.5,123C 526.022,123.561 526.355,124.228 526.5,125C 525.562,128.792 524.896,132.625 524.5,136.5C 516.167,136.5 507.833,136.5 499.5,136.5C 499.354,140.519 499.021,144.519 498.5,148.5C 504.176,148.334 509.843,148.501 515.5,149C 515.833,149.333 516.167,149.667 516.5,150C 515.419,154.066 514.752,158.233 514.5,162.5C 508.463,162.171 502.463,162.504 496.5,163.5C 495.833,166.5 495.167,169.5 494.5,172.5C 503.141,173.498 511.808,173.831 520.5,173.5C 520.528,178.138 519.861,182.638 518.5,187C 505.171,187.5 491.837,187.667 478.5,187.5C 480.554,170.458 482.887,153.458 485.5,136.5C 481.833,136.5 478.167,136.5 474.5,136.5C 474.352,131.678 475.019,127.012 476.5,122.5 Z"/></g>
<g><path style="opacity:1" fill="#363636" d="M 546.5,122.5 C 558.747,122.178 570.914,122.512 583,123.5C 586.577,144.053 590.411,164.553 594.5,185C 594.355,185.772 594.022,186.439 593.5,187C 589.167,187.667 584.833,187.667 580.5,187C 579.5,183.333 578.5,179.667 577.5,176C 570.167,175.333 562.833,175.333 555.5,176C 553.167,179.667 550.833,183.333 548.5,187C 543.511,187.499 538.511,187.666 533.5,187.5C 541.737,170.527 550.404,153.694 559.5,137C 554.511,136.501 549.511,136.334 544.5,136.5C 544.888,131.781 545.555,127.114 546.5,122.5 Z M 571.5,144.5 C 573.036,149.662 574.37,154.995 575.5,160.5C 571.5,161.833 567.5,161.833 563.5,160.5C 566.193,155.114 568.86,149.78 571.5,144.5 Z"/></g>
<g><path style="opacity:1" fill="#363636" d="M 602.5,122.5 C 616.504,122.333 630.504,122.5 644.5,123C 658.218,127.94 662.718,137.44 658,151.5C 654.686,158.149 649.519,162.649 642.5,165C 646.804,172.105 650.137,179.605 652.5,187.5C 647.489,187.666 642.489,187.499 637.5,187C 634.311,180.121 630.977,173.288 627.5,166.5C 625.326,165.107 623.493,165.44 622,167.5C 621,173.833 620,180.167 619,186.5C 614.333,187.833 609.667,187.833 605,186.5C 606.833,169.832 609,153.166 611.5,136.5C 607.833,136.5 604.167,136.5 600.5,136.5C 600.705,131.728 601.372,127.062 602.5,122.5 Z M 626.5,136.5 C 631.511,136.334 636.511,136.501 641.5,137C 646.68,141.079 646.68,145.412 641.5,150C 635.912,151.289 630.245,151.789 624.5,151.5C 624.762,146.405 625.428,141.405 626.5,136.5 Z"/></g>
<g><path style="opacity:1" fill="#373737" d="M 676.5,177.5 C 669.484,168.917 667.651,159.251 671,148.5C 671.903,144.195 673.737,140.361 676.5,137C 672.911,136.793 669.411,136.293 666,135.5C 666.347,131.223 666.847,126.889 667.5,122.5C 687.833,122.5 708.167,122.5 728.5,122.5C 728.382,130.154 727.382,137.654 725.5,145C 721.167,145.667 716.833,145.667 712.5,145C 711.864,142.606 711.864,140.106 712.5,137.5C 704.852,136.995 697.852,138.828 691.5,143C 685.883,148.711 684.05,155.545 686,163.5C 688.292,167.788 691.792,170.622 696.5,172C 704.715,173.968 713.049,174.801 721.5,174.5C 721.621,178.825 720.954,182.991 719.5,187C 703.966,188.729 689.633,185.562 676.5,177.5 Z"/></g>
<g><path style="opacity:1" fill="#373737" d="M 737.5,122.5 C 745.833,122.5 754.167,122.5 762.5,122.5C 761.874,131.212 760.874,139.878 759.5,148.5C 764.762,148.805 769.928,148.471 775,147.5C 776.029,139.134 777.195,130.801 778.5,122.5C 783.167,122.5 787.833,122.5 792.5,122.5C 789.995,143.534 787.162,164.534 784,185.5C 779.482,187.407 774.648,188.074 769.5,187.5C 770.594,179.178 771.594,170.845 772.5,162.5C 767.5,162.5 762.5,162.5 757.5,162.5C 756.881,166.662 756.215,170.828 755.5,175C 755.645,176.226 755.978,177.393 756.5,178.5C 754.914,180.923 753.914,183.59 753.5,186.5C 748.88,187.493 744.214,187.827 739.5,187.5C 741.74,170.487 744.073,153.487 746.5,136.5C 742.833,136.5 739.167,136.5 735.5,136.5C 735.705,131.728 736.372,127.062 737.5,122.5 Z"/></g>
<g><path style="opacity:1" fill="#ef4b30" d="M 323.5,130.5 C 329.167,130.5 334.833,130.5 340.5,130.5C 337.403,140.29 334.236,149.957 331,159.5C 336.575,151.679 341.075,143.346 344.5,134.5C 353.023,152.07 359.357,170.403 363.5,189.5C 362.012,191.845 360.012,192.179 357.5,190.5C 356.23,184.192 354.064,178.192 351,172.5C 343.594,165.095 335.928,164.762 328,171.5C 324.84,177.465 323.507,183.798 324,190.5C 324.944,184.611 327.444,179.611 331.5,175.5C 340.314,177.005 344.314,182.338 343.5,191.5C 330.265,192.362 316.931,192.362 303.5,191.5C 312.961,172.115 319.628,151.782 323.5,130.5 Z"/></g>

<g><path style="opacity:1" fill="#b73028" d="M 254.5,135.5 C 259.432,136.966 263.765,139.466 267.5,143C 264.183,143.498 260.85,143.665 257.5,143.5C 255.821,143.285 254.821,143.952 254.5,145.5C 250.699,144.799 247.032,143.632 243.5,142C 247.23,139.807 250.897,137.64 254.5,135.5 Z"/></g>
<g><path style="opacity:1" fill="#dc9995" d="M 257.5,143.5 C 256.833,144.167 256.167,144.833 255.5,145.5C 255.167,145.5 254.833,145.5 254.5,145.5C 254.821,143.952 255.821,143.285 257.5,143.5 Z"/></g>
<g><path style="opacity:1" fill="#b8372e" d="M 263.5,149.5 C 268.381,151.709 272.381,155.043 275.5,159.5C 271.817,159.319 268.15,159.652 264.5,160.5C 260.655,158.077 256.655,155.91 252.5,154C 256.833,153.667 261.167,153.333 265.5,153C 264.177,152.184 263.511,151.017 263.5,149.5 Z"/></g>
<g><path style="opacity:1" fill="#ee482f" d="M 95.5,67.5 C 86.5204,96.7065 86.8537,125.707 96.5,154.5C 98.9177,171 105.418,185.667 116,198.5C 121.037,203.369 125.87,208.369 130.5,213.5C 124.666,213.357 118.833,213.357 113,213.5C 110.558,213.518 108.392,212.851 106.5,211.5C 102.844,206.866 99.6777,201.866 97,196.5C 78.7459,156.207 76.7459,115.207 91,73.5C 91.8861,70.9071 93.3861,68.9071 95.5,67.5 Z"/></g>
<g><path style="opacity:1" fill="#ed422e" d="M 247.5,116.5 C 245.706,118.797 243.706,120.963 241.5,123C 243.797,123.018 246.131,122.851 248.5,122.5C 245.336,125.833 242.336,129.333 239.5,133C 241.54,132.386 243.54,132.552 245.5,133.5C 248.63,133.7 251.63,134.366 254.5,135.5C 250.897,137.64 247.23,139.807 243.5,142C 247.032,143.632 250.699,144.799 254.5,145.5C 254.833,145.5 255.167,145.5 255.5,145.5C 258.485,146.326 261.151,147.659 263.5,149.5C 263.511,151.017 264.177,152.184 265.5,153C 261.167,153.333 256.833,153.667 252.5,154C 256.655,155.91 260.655,158.077 264.5,160.5C 265.5,160.833 266.167,161.5 266.5,162.5C 236.329,162.831 206.329,162.498 176.5,161.5C 176.5,160.833 176.5,160.167 176.5,159.5C 177.11,158.609 177.443,157.609 177.5,156.5C 180.003,154.167 182.669,152.001 185.5,150C 207.306,140.603 227.972,129.436 247.5,116.5 Z M 196.5,151.5 C 197.552,151.351 198.552,151.517 199.5,152C 196.833,154.667 194.167,157.333 191.5,160C 185.215,161.073 184.215,159.406 188.5,155C 191.158,153.522 193.825,152.355 196.5,151.5 Z"/></g>
<g><path style="opacity:1" fill="#b52f28" d="M 96.5,154.5 C 111.968,187.797 136.802,211.464 171,225.5C 163.898,240.969 162.732,256.969 167.5,273.5C 165.806,272.473 164.473,271.139 163.5,269.5C 158.132,257.058 157.132,244.225 160.5,231C 150.046,225.94 140.046,220.106 130.5,213.5C 125.87,208.369 121.037,203.369 116,198.5C 105.418,185.667 98.9177,171 96.5,154.5 Z"/></g>
<g><path style="opacity:1" fill="#f37625" d="M 176.5,159.5 C 176.5,160.167 176.5,160.833 176.5,161.5C 175.686,163.631 175.186,165.964 175,168.5C 170.644,172.093 165.81,174.76 160.5,176.5C 159.5,176.167 158.5,175.833 157.5,175.5C 156.985,173.775 156.318,172.108 155.5,170.5C 154.575,171.357 153.908,172.357 153.5,173.5C 152.471,168.653 153.804,164.32 157.5,160.5C 158.44,163.39 160.107,165.723 162.5,167.5C 167.441,165.205 172.108,162.539 176.5,159.5 Z"/></g>
<g><path style="opacity:1" fill="#ed472d" d="M 176.5,161.5 C 206.329,162.498 236.329,162.831 266.5,162.5C 269.833,163.833 272.167,166.167 273.5,169.5C 269.493,168.996 265.493,168.83 261.5,169C 266.787,172.448 270.787,176.948 273.5,182.5C 272.624,182.369 271.957,182.702 271.5,183.5C 272.785,186.021 273.452,188.687 273.5,191.5C 272.238,191.907 270.905,192.24 269.5,192.5C 271.201,195.205 271.534,197.872 270.5,200.5C 269.883,200.389 269.383,200.056 269,199.5C 268.661,202.88 268.161,206.213 267.5,209.5C 256.915,210.476 246.248,210.809 235.5,210.5C 237.954,206.799 239.62,202.799 240.5,198.5C 244.991,187.013 242.658,177.346 233.5,169.5C 232.42,174.001 230.086,177.668 226.5,180.5C 216.193,175.617 207.36,177.617 200,186.5C 198.265,191.138 197.599,195.805 198,200.5C 192.351,202.047 186.851,201.547 181.5,199C 187.884,191.553 189.884,183.22 187.5,174C 184.537,173.99 181.871,174.99 179.5,177C 174.633,181.532 170.133,186.366 166,191.5C 159.093,187.336 154.926,181.336 153.5,173.5C 153.908,172.357 154.575,171.357 155.5,170.5C 156.318,172.108 156.985,173.775 157.5,175.5C 158.5,175.833 159.5,176.167 160.5,176.5C 165.81,174.76 170.644,172.093 175,168.5C 175.186,165.964 175.686,163.631 176.5,161.5 Z"/></g>
<g><path style="opacity:1" fill="#f8a192" d="M 326.5,164.5 C 327.713,165.497 327.546,166.497 326,167.5C 325.53,166.423 325.697,165.423 326.5,164.5 Z"/></g>
<g><path style="opacity:1" fill="#b63029" d="M 273.5,169.5 C 278.081,173.914 280.081,179.247 279.5,185.5C 277.22,184.864 275.22,183.864 273.5,182.5C 270.787,176.948 266.787,172.448 261.5,169C 265.493,168.83 269.493,168.996 273.5,169.5 Z"/></g>
<g><path style="opacity:1" fill="#bc3d33" d="M 233.5,169.5 C 233.968,174.37 233.302,179.036 231.5,183.5C 229.267,184.016 227.6,183.016 226.5,180.5C 230.086,177.668 232.42,174.001 233.5,169.5 Z"/></g>
<g><path style="opacity:1" fill="#b52d26" d="M 262.5,340.5 C 271.481,314.732 287.148,293.899 309.5,278C 315.415,273.791 321.582,269.958 328,266.5C 329.796,261.243 331.296,255.91 332.5,250.5C 338.489,231.236 342.155,211.569 343.5,191.5C 344.314,182.338 340.314,177.005 331.5,175.5C 334.55,172.647 338.217,171.813 342.5,173C 347.33,177.827 350.163,183.66 351,190.5C 353.216,216.793 351.216,242.793 345,268.5C 327.722,278.553 311.222,289.719 295.5,302C 282.447,313.209 271.447,326.042 262.5,340.5 Z"/></g>
<g><path style="opacity:0.024" fill="#bfc1c2" d="M 804.5,174.5 C 806.337,174.639 806.67,175.306 805.5,176.5C 804.702,176.043 804.369,175.376 804.5,174.5 Z"/></g>
<g><path style="opacity:1" fill="#d19794" d="M 237.5,176.5 C 236.833,177.167 236.167,177.833 235.5,178.5C 235.281,177.325 235.614,176.325 236.5,175.5C 237.107,175.624 237.44,175.957 237.5,176.5 Z"/></g>
<g><path style="opacity:0.024" fill="#bfc1c2" d="M 34.5,177.5 C 36.337,177.639 36.6704,178.306 35.5,179.5C 34.7025,179.043 34.3691,178.376 34.5,177.5 Z"/></g>
<g><path style="opacity:0.024" fill="#bfc1c2" d="M 114.5,177.5 C 116.337,177.639 116.67,178.306 115.5,179.5C 114.702,179.043 114.369,178.376 114.5,177.5 Z"/></g>
<g><path style="opacity:1" fill="#b6352e" d="M 237.5,176.5 C 241.172,183.908 240.839,191.241 236.5,198.5C 235.998,199.521 235.332,199.688 234.5,199C 232.167,196.667 229.833,194.333 227.5,192C 231.846,188.473 234.512,183.973 235.5,178.5C 236.167,177.833 236.833,177.167 237.5,176.5 Z"/></g>
<g><path style="opacity:0.024" fill="#bfc1c2" d="M 594.5,177.5 C 596.337,177.639 596.67,178.306 595.5,179.5C 594.702,179.043 594.369,178.376 594.5,177.5 Z"/></g>
<g><path style="opacity:0.024" fill="#bfc1c2" d="M 676.5,177.5 C 676.361,179.337 675.694,179.67 674.5,178.5C 674.957,177.702 675.624,177.369 676.5,177.5 Z"/></g>
<g><path style="opacity:0.024" fill="#bfc1c2" d="M 834.5,177.5 C 836.337,177.639 836.67,178.306 835.5,179.5C 834.702,179.043 834.369,178.376 834.5,177.5 Z"/></g>
<g><path style="opacity:0.024" fill="#bfc1c2" d="M 914.5,177.5 C 916.337,177.639 916.67,178.306 915.5,179.5C 914.702,179.043 914.369,178.376 914.5,177.5 Z"/></g>
<g><path style="opacity:1" fill="#bc433a" d="M 182.5,184.5 C 183.598,185.601 183.765,186.934 183,188.5C 182,190.167 181,191.833 180,193.5C 174.333,197.167 168.667,200.833 163,204.5C 161.073,207.948 159.739,211.615 159,215.5C 156.179,208.293 157.679,202.127 163.5,197C 168.167,194.667 172.833,192.333 177.5,190C 179.373,188.296 181.04,186.463 182.5,184.5 Z"/></g>
<g><path style="opacity:1" fill="#ef4e29" d="M 303.5,191.5 C 316.931,192.362 330.265,192.362 343.5,191.5C 342.155,211.569 338.489,231.236 332.5,250.5C 313.167,250.5 293.833,250.5 274.5,250.5C 284.423,230.987 294.089,211.321 303.5,191.5 Z"/></g>
<g><path style="opacity:1" fill="#f15c39" d="M 363.5,189.5 C 364.941,195.814 366.274,202.147 367.5,208.5C 366.309,222.479 362.976,235.812 357.5,248.5C 359.995,229.145 359.995,209.812 357.5,190.5C 360.012,192.179 362.012,191.845 363.5,189.5 Z"/></g>
<g><path style="opacity:1" fill="#bb3229" d="M 273.5,191.5 C 274.647,195.646 274.814,199.98 274,204.5C 272.624,203.295 271.458,201.962 270.5,200.5C 271.534,197.872 271.201,195.205 269.5,192.5C 270.905,192.24 272.238,191.907 273.5,191.5 Z"/></g>
<g><path style="opacity:1" fill="#b7362e" d="M 225.5,193.5 C 228.631,196.129 231.631,198.962 234.5,202C 230.985,205.682 227.318,209.182 223.5,212.5C 219.928,209.097 216.928,205.263 214.5,201C 218.58,198.971 222.246,196.471 225.5,193.5 Z"/></g>
<g><path style="opacity:1" fill="#fc860d" d="M 81.5,206.5 C 83.8252,217.814 88.3252,228.147 95,237.5C 102.184,246.008 111.351,250.008 122.5,249.5C 109.305,260.273 94.6388,268.773 78.5,275C 74.5948,276.359 70.5948,277.192 66.5,277.5C 60.9738,277.821 55.6405,277.488 50.5,276.5C 69.546,260.367 72.7126,241.367 60,219.5C 56.4405,213.551 52.2738,208.051 47.5,203C 57.5724,200.893 67.5724,201.227 77.5,204C 79.0664,204.608 80.3998,205.442 81.5,206.5 Z"/></g>
<g><path style="opacity:1" fill="#b6332c" d="M 211.5,201.5 C 214.589,205.768 217.923,209.934 221.5,214C 217.951,217.057 214.284,219.891 210.5,222.5C 204.53,219.863 200.196,215.53 197.5,209.5C 202.229,206.806 206.896,204.14 211.5,201.5 Z"/></g>
<g><path style="opacity:1" fill="#b52e26" d="M 240.5,198.5 C 239.62,202.799 237.954,206.799 235.5,210.5C 228.531,218.308 221.698,226.308 215,234.5C 210.126,240.913 206.293,247.913 203.5,255.5C 198.697,267.919 199.53,279.919 206,291.5C 216.881,299.809 228.381,300.642 240.5,294C 247.227,285.987 250.227,276.821 249.5,266.5C 249.709,267.922 250.209,269.255 251,270.5C 253.378,272.709 255.545,275.042 257.5,277.5C 253.645,289.283 251.978,301.283 252.5,313.5C 236.436,316.742 221.103,314.575 206.5,307C 190.598,294.967 184.764,279.134 189,259.5C 190.946,252.942 193.946,246.942 198,241.5C 203.801,234.698 209.968,228.198 216.5,222C 225.695,215.304 233.695,207.471 240.5,198.5 Z"/></g>
<g><path style="opacity:1" fill="#ee4f28" d="M 267.5,209.5 C 266.247,215.337 263.913,220.67 260.5,225.5C 258.171,230.344 254.838,234.511 250.5,238C 264.283,236.024 275.45,229.524 284,218.5C 283.763,220.989 282.929,223.322 281.5,225.5C 280.5,225.833 279.833,226.5 279.5,227.5C 274.308,236.55 269.642,245.883 265.5,255.5C 244.833,254.167 224.167,254.167 203.5,255.5C 206.293,247.913 210.126,240.913 215,234.5C 221.698,226.308 228.531,218.308 235.5,210.5C 246.248,210.809 256.915,210.476 267.5,209.5 Z"/></g>
<g><path style="opacity:1" fill="#b5312a" d="M 194.5,210.5 C 198.263,216.098 202.93,220.932 208.5,225C 204.267,229.233 200.1,233.4 196,237.5C 188.998,234.831 183.498,230.331 179.5,224C 183.717,218.57 188.717,214.07 194.5,210.5 Z"/></g>
<g><path style="opacity:1" fill="#ef522d" d="M 81.5,206.5 C 94.9078,213.203 108.574,219.37 122.5,225C 130.266,228.09 138.266,230.256 146.5,231.5C 148.966,232.634 151.633,232.801 154.5,232C 152.323,230.798 149.989,230.298 147.5,230.5C 133.164,226.993 119.83,221.326 107.5,213.5C 107.167,212.833 106.833,212.167 106.5,211.5C 108.392,212.851 110.558,213.518 113,213.5C 118.833,213.357 124.666,213.357 130.5,213.5C 140.046,220.106 150.046,225.94 160.5,231C 157.132,244.225 158.132,257.058 163.5,269.5C 155.167,268.167 146.833,268.167 138.5,269.5C 140.394,263.746 142.228,258.079 144,252.5C 140.266,259.964 137.099,267.631 134.5,275.5C 129.275,280.358 122.942,282.691 115.5,282.5C 106.812,282 98.8117,279.667 91.5,275.5C 106.502,264.821 121.502,254.154 136.5,243.5C 139.646,241.425 142.979,239.592 146.5,238C 142.4,238.381 138.734,239.881 135.5,242.5C 130.98,244.591 126.647,246.925 122.5,249.5C 111.351,250.008 102.184,246.008 95,237.5C 88.3252,228.147 83.8252,217.814 81.5,206.5 Z"/></g>
<g><path style="opacity:1" fill="#e8a49b" d="M 281.5,225.5 C 281.737,226.791 281.404,227.791 280.5,228.5C 280.5,227.833 280.167,227.5 279.5,227.5C 279.833,226.5 280.5,225.833 281.5,225.5 Z"/></g>
<g><path style="opacity:1" fill="#b5332b" d="M 177.5,225.5 C 182.231,231.564 187.898,236.564 194.5,240.5C 191.012,245.448 188.178,250.781 186,256.5C 180.292,254.397 175.126,251.397 170.5,247.5C 169.601,239.196 171.934,231.862 177.5,225.5 Z"/></g>
<g><path style="opacity:1" fill="#f69a86" d="M 147.5,230.5 C 149.989,230.298 152.323,230.798 154.5,232C 151.633,232.801 148.966,232.634 146.5,231.5C 147.167,231.5 147.5,231.167 147.5,230.5 Z"/></g>
<g><path style="opacity:1" fill="#fbc0b3" d="M 136.5,243.5 C 136.5,242.833 136.167,242.5 135.5,242.5C 138.734,239.881 142.4,238.381 146.5,238C 142.979,239.592 139.646,241.425 136.5,243.5 Z"/></g>
<g><path style="opacity:1" fill="#f8a794" d="M 149.5,244.5 C 149.461,243.244 149.961,242.244 151,241.5C 151.585,242.998 151.085,243.998 149.5,244.5 Z"/></g>
<g><path style="opacity:1" fill="#fbb7a7" d="M 149.5,244.5 C 149.5,246.5 148.5,247.5 146.5,247.5C 147.167,246.167 148.167,245.167 149.5,244.5 Z"/></g>
<g><path style="opacity:0.6" fill="#f7bdad" d="M 357.5,248.5 C 356.833,249.167 356.833,249.167 357.5,248.5 Z"/></g>
<g><path style="opacity:1" fill="#b6352e" d="M 168.5,249.5 C 172.111,251.644 175.778,253.81 179.5,256C 181.436,256.813 183.436,257.313 185.5,257.5C 184.902,262.813 184.569,268.146 184.5,273.5C 179.755,273.522 175.255,272.522 171,270.5C 168.922,263.66 168.089,256.66 168.5,249.5 Z"/></g>
<g><path style="opacity:1" fill="#ef5528" d="M 274.5,250.5 C 293.833,250.5 313.167,250.5 332.5,250.5C 331.296,255.91 329.796,261.243 328,266.5C 321.582,269.958 315.415,273.791 309.5,278C 287.148,293.899 271.481,314.732 262.5,340.5C 262.108,342.179 261.608,343.846 261,345.5C 259.253,342.79 258.253,339.79 258,336.5C 255.47,310.044 258.97,284.378 268.5,259.5C 270.5,256.5 272.5,253.5 274.5,250.5 Z"/></g>
<g><path style="opacity:0.016" fill="#bfc1c2" d="M 404.5,254.5 C 406.337,254.639 406.67,255.306 405.5,256.5C 404.702,256.043 404.369,255.376 404.5,254.5 Z"/></g>
<g><path style="opacity:0.024" fill="#bfbabb" d="M 484.5,254.5 C 486.424,254.711 486.757,255.377 485.5,256.5C 484.662,256.158 484.328,255.492 484.5,254.5 Z"/></g>
<g><path style="opacity:0.024" fill="#bfc1c2" d="M 564.5,254.5 C 566.337,254.639 566.67,255.306 565.5,256.5C 564.702,256.043 564.369,255.376 564.5,254.5 Z"/></g>
<g><path style="opacity:0.024" fill="#bfc1c2" d="M 644.5,254.5 C 646.337,254.639 646.67,255.306 645.5,256.5C 644.702,256.043 644.369,255.376 644.5,254.5 Z"/></g>
<g><path style="opacity:1" fill="#c49b9a" d="M 726.5,253.5 C 726.768,255.099 726.434,256.432 725.5,257.5C 724.046,255.737 724.38,254.403 726.5,253.5 Z"/></g>
<g><path style="opacity:0.024" fill="#bfc1c2" d="M 804.5,254.5 C 806.337,254.639 806.67,255.306 805.5,256.5C 804.702,256.043 804.369,255.376 804.5,254.5 Z"/></g>
<g><path style="opacity:0.024" fill="#bfc1c2" d="M 34.5,257.5 C 36.337,257.639 36.6704,258.306 35.5,259.5C 34.7025,259.043 34.3691,258.376 34.5,257.5 Z"/></g>
<g><path style="opacity:0.024" fill="#bfc1c2" d="M 354.5,257.5 C 356.337,257.639 356.67,258.306 355.5,259.5C 354.702,259.043 354.369,258.376 354.5,257.5 Z"/></g>
<g><path style="opacity:1" fill="#ee5525" d="M 265.5,255.5 C 263.499,259.838 261.499,264.172 259.5,268.5C 256.525,265.508 253.191,264.841 249.5,266.5C 250.227,276.821 247.227,285.987 240.5,294C 228.381,300.642 216.881,299.809 206,291.5C 199.53,279.919 198.697,267.919 203.5,255.5C 224.167,254.167 244.833,254.167 265.5,255.5 Z"/></g>
<g><path style="opacity:1" fill="#ef5629" d="M 163.5,269.5 C 164.473,271.139 165.806,272.473 167.5,273.5C 170.077,279.66 173.41,285.327 177.5,290.5C 165.135,299.222 158.468,311.222 157.5,326.5C 143.632,324.728 129.965,325.728 116.5,329.5C 120.514,322.805 124.014,315.805 127,308.5C 131.306,295.602 135.14,282.602 138.5,269.5C 146.833,268.167 155.167,268.167 163.5,269.5 Z"/></g>
<g><path style="opacity:0.188" fill="#cc716e" d="M 413.5,267.5 C 414.525,267.897 414.692,268.563 414,269.5C 413.536,268.906 413.369,268.239 413.5,267.5 Z"/></g>
<g><path style="opacity:1" fill="#b93d34" d="M 172.5,273.5 C 176.418,274.682 180.418,275.682 184.5,276.5C 186.34,284.189 188.84,291.522 192,298.5C 186.667,294.5 182,289.833 178,284.5C 175.628,281.09 173.795,277.423 172.5,273.5 Z"/></g>
<g><path style="opacity:1" fill="#fc8710" d="M 91.5,275.5 C 98.8117,279.667 106.812,282 115.5,282.5C 122.942,282.691 129.275,280.358 134.5,275.5C 128.886,293.843 121.053,311.177 111,327.5C 104.59,334.357 96.7568,336.69 87.5,334.5C 95.6827,324.466 98.8494,313.133 97,300.5C 93.4578,291.296 86.9578,285.129 77.5,282C 82.0683,279.548 86.735,277.382 91.5,275.5 Z"/></g>
<g><path style="opacity:1" fill="#fea951" d="M 50.5,276.5 C 55.6405,277.488 60.9738,277.821 66.5,277.5C 60.3471,278.653 54.0137,278.82 47.5,278C 48.5266,277.487 49.5266,276.987 50.5,276.5 Z"/></g>
<g><path style="opacity:1" fill="#b52e26" d="M 177.5,290.5 C 179.672,291.661 181.006,293.495 181.5,296C 173.993,314.887 172.827,334.054 178,353.5C 159.896,339.3 139.396,331.3 116.5,329.5C 129.965,325.728 143.632,324.728 157.5,326.5C 158.468,311.222 165.135,299.222 177.5,290.5 Z"/></g>
<g><path style="opacity:0.024" fill="#bfc1c2" d="M 324.5,334.5 C 326.337,334.639 326.67,335.306 325.5,336.5C 324.702,336.043 324.369,335.376 324.5,334.5 Z"/></g>
<g><path style="opacity:0.024" fill="#bfc1c2" d="M 404.5,334.5 C 406.337,334.639 406.67,335.306 405.5,336.5C 404.702,336.043 404.369,335.376 404.5,334.5 Z"/></g>
<g><path style="opacity:0.024" fill="#bfc1c2" d="M 484.5,334.5 C 486.337,334.639 486.67,335.306 485.5,336.5C 484.702,336.043 484.369,335.376 484.5,334.5 Z"/></g>
<g><path style="opacity:0.024" fill="#bfc1c2" d="M 564.5,334.5 C 566.337,334.639 566.67,335.306 565.5,336.5C 564.702,336.043 564.369,335.376 564.5,334.5 Z"/></g>
<g><path style="opacity:0.024" fill="#bfc1c2" d="M 644.5,334.5 C 646.337,334.639 646.67,335.306 645.5,336.5C 644.702,336.043 644.369,335.376 644.5,334.5 Z"/></g>
<g><path style="opacity:0.024" fill="#bfc1c2" d="M 724.5,334.5 C 726.337,334.639 726.67,335.306 725.5,336.5C 724.702,336.043 724.369,335.376 724.5,334.5 Z"/></g>
<g><path style="opacity:0.024" fill="#bfc1c2" d="M 804.5,334.5 C 806.337,334.639 806.67,335.306 805.5,336.5C 804.702,336.043 804.369,335.376 804.5,334.5 Z"/></g>
<g><path style="opacity:0.024" fill="#bfc1c2" d="M 34.5,337.5 C 36.337,337.639 36.6704,338.306 35.5,339.5C 34.7025,339.043 34.3691,338.376 34.5,337.5 Z"/></g>
<g><path style="opacity:0.024" fill="#bfc1c2" d="M 114.5,337.5 C 116.337,337.639 116.67,338.306 115.5,339.5C 114.702,339.043 114.369,338.376 114.5,337.5 Z"/></g>
<g><path style="opacity:0.024" fill="#bfc1c2" d="M 194.5,337.5 C 196.337,337.639 196.67,338.306 195.5,339.5C 194.702,339.043 194.369,338.376 194.5,337.5 Z"/></g>
<g><path style="opacity:0.024" fill="#bfc1c2" d="M 274.5,337.5 C 276.337,337.639 276.67,338.306 275.5,339.5C 274.702,339.043 274.369,338.376 274.5,337.5 Z"/></g>
<g><path style="opacity:0.024" fill="#bfc1c2" d="M 354.5,337.5 C 356.337,337.639 356.67,338.306 355.5,339.5C 354.702,339.043 354.369,338.376 354.5,337.5 Z"/></g>
<g><path style="opacity:0.024" fill="#bfc1c2" d="M 434.5,337.5 C 436.337,337.639 436.67,338.306 435.5,339.5C 434.702,339.043 434.369,338.376 434.5,337.5 Z"/></g>
<g><path style="opacity:0.024" fill="#bfc1c2" d="M 514.5,337.5 C 516.337,337.639 516.67,338.306 515.5,339.5C 514.702,339.043 514.369,338.376 514.5,337.5 Z"/></g>
<g><path style="opacity:0.024" fill="#bfc1c2" d="M 594.5,337.5 C 596.337,337.639 596.67,338.306 595.5,339.5C 594.702,339.043 594.369,338.376 594.5,337.5 Z"/></g>
<g><path style="opacity:0.024" fill="#bfc1c2" d="M 674.5,337.5 C 676.337,337.639 676.67,338.306 675.5,339.5C 674.702,339.043 674.369,338.376 674.5,337.5 Z"/></g>
<g><path style="opacity:0.024" fill="#bfc1c2" d="M 754.5,337.5 C 756.337,337.639 756.67,338.306 755.5,339.5C 754.702,339.043 754.369,338.376 754.5,337.5 Z"/></g>
<g><path style="opacity:0.024" fill="#bfc1c2" d="M 834.5,337.5 C 836.337,337.639 836.67,338.306 835.5,339.5C 834.702,339.043 834.369,338.376 834.5,337.5 Z"/></g>
<g><path style="opacity:0.024" fill="#bfc1c2" d="M 914.5,337.5 C 916.337,337.639 916.67,338.306 915.5,339.5C 914.702,339.043 914.369,338.376 914.5,337.5 Z"/></g>
</svg>
